<svg width="76" height="76" viewBox="0 0 76 76" fill="none" xmlns="http://www.w3.org/2000/svg">
<rect width="76" height="76" rx="14" fill="black"/>
<path d="M62.1104 27.8144H54.398C53.5249 24.9249 51.9242 22.7096 49.596 21.1686C47.3162 19.5793 44.6484 18.7847 41.5926 18.7847C38.4882 18.7847 35.8204 19.5552 33.5892 21.0963C31.358 22.6374 29.636 24.8527 28.4234 27.7422C27.2593 30.6317 26.6772 34.0751 26.6772 38.0722C26.6772 42.0694 27.2593 45.5127 28.4234 48.4023C29.5875 51.2436 31.2852 53.4348 33.5164 54.9759C35.7477 56.4688 38.4397 57.2153 41.5926 57.2153C44.5514 57.2153 47.1464 56.4688 49.3777 54.9759C51.6089 53.483 53.2339 51.3159 54.2525 48.4745H62.0376C61.1645 51.6048 59.7093 54.3017 57.6721 56.5652C55.6834 58.8286 53.2824 60.5623 50.4691 61.7663C47.7043 62.9221 44.7212 63.5 41.5198 63.5C36.8633 63.5 32.8616 62.4646 29.5148 60.3938C26.1679 58.3229 23.5971 55.4093 21.8024 51.653C20.0077 47.8484 19.1104 43.3215 19.1104 38.0722C19.1104 32.8229 20.032 28.296 21.8752 24.4915C23.7184 20.6388 26.3134 17.6771 29.6603 15.6062C33.0556 13.5354 37.1058 12.5 41.8109 12.5C45.0607 12.5 48.0681 13.0779 50.8329 14.2337C53.6462 15.3895 56.0472 17.1232 58.0359 19.4348C60.0246 21.6983 61.3828 24.4915 62.1104 27.8144Z" fill="white"/>
<path d="M40.0703 38.3853L44.1016 42.4175L45.8682 44.1851L20.6201 69.4331V64.437L8.24707 52.064L10.0156 50.2964L14.1416 46.1733L15.9092 44.4058L17.6768 46.1733L23.21 51.7085L36.5352 38.3853L38.3027 36.6167L40.0703 38.3853Z" fill="white" stroke="black" stroke-width="5"/>
</svg>
