<svg width="128" height="128" viewBox="0 0 128 128" fill="none" xmlns="http://www.w3.org/2000/svg">
<path d="M111.29 0H16.7095C7.48111 0 0 7.4811 0 16.7095V111.29C0 120.519 7.48111 128 16.7095 128H111.29C120.519 128 128 120.519 128 111.29V16.7095C128 7.4811 120.519 0 111.29 0Z" fill="#0F2544"/>
<path d="M65.093 64.2805L45.1145 84.2555L35.4511 74.5921L29.9922 80.0475L44.9919 95.0472L44.9953 95.0402L45.0024 95.0472L70.4293 69.6168L65.093 64.2805Z" fill="#60A1E2"/>
<path d="M41.6705 68.3693L45.1147 71.8135L49.8413 67.0869C49.7678 66.0989 49.7117 65.0968 49.7117 64.0386C49.7117 59.0387 50.5176 54.8097 52.1293 51.348C53.741 47.8897 55.9554 45.2619 58.7795 43.4715C61.5965 41.681 64.7849 40.7841 68.3448 40.7841C70.2859 40.7841 72.1359 41.0469 73.8842 41.5759C75.6361 42.105 77.2198 42.8968 78.6354 43.9515C80.0509 45.0061 81.2527 46.292 82.2408 47.8056C83.2253 49.3193 83.9121 51.0641 84.301 53.0368H93.8453C93.3162 49.7572 92.3071 46.8281 90.8215 44.2423C89.3359 41.66 87.4614 39.4631 85.198 37.6587C82.931 35.8543 80.3627 34.4773 77.4861 33.5312C74.6095 32.5887 71.5332 32.1157 68.2537 32.1157C62.8929 32.1157 58.0997 33.3946 53.8777 35.9489C49.6521 38.5066 46.3341 42.1646 43.9165 46.9297C41.4989 51.6948 40.29 57.3955 40.29 64.0351C40.29 65.1073 40.3741 66.1129 40.4372 67.136L41.667 68.3658L41.6705 68.3693Z" fill="white"/>
<path d="M84.3003 74.96C83.9114 76.9046 83.2247 78.6424 82.2401 80.1701C81.252 81.6977 80.0432 82.9836 78.6137 84.0242C77.1806 85.0649 75.5969 85.8567 73.8626 86.3998C72.1247 86.9429 70.2852 87.2127 68.3406 87.2127C67.3595 87.2127 66.417 87.1286 65.492 86.9919L58.3408 94.1431C61.4031 95.2644 64.6897 95.881 68.253 95.881C71.8163 95.881 74.8331 95.373 77.7342 94.3604C80.6389 93.3443 83.2141 91.8937 85.4671 90.0052C87.7165 88.1166 89.563 85.8988 91.01 83.3585C92.4536 80.8148 93.4136 78.0188 93.8867 74.96H84.3003Z" fill="white"/>
</svg>
