<svg width="92" height="18" viewBox="0 0 92 18" fill="none" xmlns="http://www.w3.org/2000/svg">
<g clip-path="url(#clip0_299_2889)">
<path d="M9.81325 9.16943L11.3531 10.8458L4.9139 17.0071C4.31188 17.5832 3.3657 17.5525 2.80111 16.9381L2.4216 16.5254L0 13.8888L1.64282 12.3174L3.92613 14.8023L9.81325 9.16943Z" fill="#726A60"/>
<path d="M22.565 17.1534C21.6802 16.589 20.996 15.807 20.5146 14.8065C20.0322 13.807 19.792 12.6781 19.792 11.4197C19.792 10.1614 20.0332 9.03352 20.5146 8.03299C20.996 7.03352 21.6802 6.25156 22.565 5.68604C23.4499 5.12158 24.4771 4.83936 25.6469 4.83936C26.8166 4.83936 27.8397 5.12158 28.7173 5.68604C29.5948 6.2505 30.2738 7.0367 30.7563 8.04466C31.2377 9.05262 31.4789 10.1943 31.4789 11.4675V12.1932H22.1387C22.2489 13.3539 22.6087 14.2823 23.217 14.9752C23.8252 15.6691 24.6352 16.015 25.6469 16.015C26.4215 16.015 27.0963 15.8293 27.6734 15.459C28.2504 15.0887 28.6809 14.5635 28.9658 13.8866H31.2418C30.8467 15.1449 30.1553 16.1444 29.1675 16.886C28.1797 17.6277 27.0058 17.999 25.6469 17.999C24.4771 17.999 23.4499 17.7168 22.565 17.1524V17.1534ZM29.1321 10.2834C28.9585 9.2192 28.5748 8.37676 27.9822 7.755C27.3895 7.13432 26.6107 6.82344 25.6469 6.82344C24.683 6.82344 23.9001 7.13432 23.3001 7.755C22.6992 8.37569 22.3196 9.21813 22.1626 10.2834H29.1321Z" fill="#726A60"/>
<path d="M32.9346 5.13657H35.065V7.31057C35.5069 6.45752 36.0549 5.85699 36.7099 5.5111C37.365 5.16522 38.1105 4.99121 38.9465 4.99121H39.8937V7.16522H38.8758C37.7237 7.16522 36.816 7.4676 36.1537 8.07132C35.4913 8.67503 35.1597 9.70209 35.1597 11.1514V17.6978H32.9346V5.13657Z" fill="#726A60"/>
<path d="M45.1669 1.271V5.13625H48.4338V7.06834H45.1669V14.4837C45.1669 14.9347 45.2657 15.2614 45.4632 15.462C45.6608 15.6636 45.98 15.7644 46.4219 15.7644H48.4338V17.6965H45.9488C44.8758 17.6965 44.1022 17.463 43.6291 16.9962C43.156 16.5294 42.9189 15.7803 42.9189 14.75V7.06834H40.6699V5.13625H42.9189V1.271H45.1679H45.1669Z" fill="#726A60"/>
<path d="M50.0762 0.304688H52.3013V2.8649H50.0762V0.304688ZM50.0762 5.13652H52.3252V17.6967H50.0762V5.13652Z" fill="#726A60"/>
<path d="M56.6897 0.993282C57.1628 0.533865 57.9364 0.304688 59.0094 0.304688H61.4944V2.23678H59.4825C59.0406 2.23678 58.7203 2.33758 58.5238 2.53917C58.3263 2.74076 58.2275 3.058 58.2275 3.49302V5.13546H61.4944V7.06755H58.2275V17.6957H55.9785V7.06755H53.7295V5.13546H55.9785V3.25111C55.9785 2.20495 56.2156 1.45164 56.6887 0.992221L56.6897 0.993282Z" fill="#726A60"/>
<path d="M62.9775 0.304688H65.2026V2.8649H62.9775V0.304688ZM62.9775 5.13652H65.2265V17.6967H62.9775V5.13652Z" fill="#726A60"/>
<path d="M69.8509 17.1416C68.9671 16.5782 68.285 15.7973 67.8036 14.7988C67.3222 13.8004 67.082 12.6737 67.082 11.4174C67.082 10.1612 67.3222 9.03439 67.8036 8.03599C68.285 7.03758 68.9671 6.25668 69.8509 5.69328C70.7347 5.12988 71.7599 4.84766 72.9286 4.84766C74.0973 4.84766 75.1183 5.12988 75.9938 5.69328C76.8693 6.25668 77.5483 7.04182 78.0297 8.04872C78.5111 9.05561 78.7513 10.1951 78.7513 11.4662V12.1909H69.4246C69.5348 13.3506 69.8935 14.2768 70.5018 14.9686C71.109 15.6614 71.918 16.0073 72.9286 16.0073C73.7011 16.0073 74.3759 15.8227 74.952 15.4514C75.528 15.0811 75.9585 14.558 76.2423 13.8811H78.5152C78.1201 15.1373 77.4297 16.1357 76.444 16.8763C75.4573 17.6169 74.2855 17.9872 72.9286 17.9872C71.761 17.9872 70.7347 17.705 69.8509 17.1416ZM76.4076 10.2811C76.234 9.21795 75.8514 8.37657 75.2597 7.75694C74.6681 7.13731 73.8904 6.82644 72.9286 6.82644C71.9668 6.82644 71.1849 7.13625 70.585 7.75694C69.985 8.37657 69.6066 9.21795 69.4485 10.2811H76.4076Z" fill="#726A60"/>
<path d="M89.8691 17.6967V15.788C89.4272 16.4967 88.8595 17.04 88.1649 17.4187C87.4703 17.7975 86.6656 17.9864 85.7506 17.9864C84.5507 17.9864 83.5255 17.7042 82.6729 17.1408C81.8203 16.5774 81.1736 15.8007 80.7317 14.8097C80.2898 13.8198 80.0693 12.6888 80.0693 11.4156C80.0693 10.1424 80.2898 9.01238 80.7317 8.0214C81.1736 7.03148 81.8203 6.25482 82.6729 5.69036C83.5255 5.12697 84.5507 4.84474 85.7506 4.84474C87.5026 4.84474 88.8439 5.52909 89.7744 6.89779V0.304688H91.9995V17.6967H89.8691ZM88.8511 14.7376C89.4823 13.9079 89.7984 12.8012 89.7984 11.4166C89.7984 10.032 89.4823 8.92432 88.8511 8.09567C88.22 7.26596 87.304 6.85217 86.1051 6.85217C84.9063 6.85217 83.9664 7.26702 83.3352 8.09567C82.7041 8.92538 82.388 10.032 82.388 11.4166C82.388 12.8012 82.703 13.9089 83.3352 14.7376C83.9664 15.5673 84.8897 15.9811 86.1051 15.9811C87.3206 15.9811 88.22 15.5662 88.8511 14.7376Z" fill="#726A60"/>
<path d="M5.85206 10.1506C5.81047 9.77923 5.7876 9.3962 5.7876 8.99938C5.7876 7.72618 5.99659 6.5771 6.41561 5.55217C6.83464 4.5283 7.47825 3.71769 8.34749 3.1214C9.21672 2.52511 10.2835 2.22591 11.5479 2.22591C12.8122 2.22591 13.8239 2.58453 14.6775 3.30283C15.5312 4.02007 16.0677 4.96013 16.2892 6.12087H18.6837C18.4779 4.94421 18.063 3.89169 17.4391 2.96437C16.8142 2.03705 15.997 1.31132 14.9853 0.787183C13.9736 0.263046 12.8278 0.000976562 11.5479 0.000976562C9.79379 0.000976562 8.2955 0.40416 7.05506 1.21053C5.81463 2.01689 4.88197 3.10124 4.25811 4.46464C3.63322 5.82803 3.32129 7.33997 3.32129 9.00045C3.32129 10.1219 3.46686 11.1745 3.75175 12.1601L5.84998 10.1516L5.85206 10.1506Z" fill="#726A60"/>
<path d="M16.4088 11.3209C16.2351 12.6429 15.7132 13.7156 14.8439 14.5379C13.9747 15.3601 12.8767 15.7718 11.5489 15.7718C10.793 15.7718 10.1099 15.6615 9.49542 15.4482L7.70703 17.1596C8.81022 17.7177 10.0912 17.9967 11.5489 17.9967C12.9079 17.9967 14.1047 17.706 15.1403 17.1257C16.1748 16.5453 17.0046 15.7506 17.6295 14.7426C18.2533 13.7347 18.6443 12.5941 18.8033 11.3198H16.4088V11.3209Z" fill="#726A60"/>
</g>
<defs>
<clipPath id="clip0_299_2889">
<rect width="92" height="18" fill="white"/>
</clipPath>
</defs>
</svg>
