<svg width="59" height="56" viewBox="0 0 59 56" fill="none" xmlns="http://www.w3.org/2000/svg">
<path d="M30.7886 28.3306L35.6213 33.5097L11.9905 55.7602L7.5921 51.0455L0 42.9109L5.15479 38.0555L12.3127 45.7256L30.7886 28.3306Z" fill="black"/>
<path d="M51.4778 34.9731C50.9315 39.0545 49.2926 42.3759 46.5752 44.9092C43.8437 47.4565 40.3978 48.7231 36.2376 48.7231C33.6742 48.7231 31.3629 48.3291 29.3178 47.555L23.7568 52.7904C27.3148 54.6622 31.475 55.5911 36.2376 55.5911C40.4959 55.5911 44.2639 54.6904 47.4997 52.903C50.7494 51.1156 53.3548 48.6528 55.3159 45.5425C57.277 42.4322 58.4956 38.8997 58.9999 34.9731H51.4918H51.4778Z" fill="black"/>
<path d="M18.4205 31.9191C18.2524 30.5962 18.1544 29.231 18.1544 27.8096C18.1544 23.8689 18.8127 20.3224 20.1295 17.1558C21.4462 13.9892 23.4633 11.4841 26.1947 9.64047C28.9262 7.79681 32.274 6.88203 36.2382 6.88203C40.2023 6.88203 43.382 7.99385 46.0575 10.2034C48.7329 12.4271 50.4138 15.3262 51.1142 18.915H58.6223C57.9779 15.284 56.6752 12.033 54.7141 9.16196C52.7531 6.29093 50.1897 4.05322 47.01 2.43475C43.8303 0.816273 40.2443 0 36.2242 0C30.7192 0 26.0266 1.25256 22.1325 3.72952C18.2384 6.22056 15.3109 9.5701 13.3498 13.7781C11.3887 17.9862 10.4082 22.6586 10.4082 27.7955C10.4082 31.4406 10.9125 34.8605 11.907 38.0411L18.4205 31.905V31.9191Z" fill="black"/>
</svg>
